<svg width="512" height="512" viewBox="0 0 512 512" fill="none" xmlns="http://www.w3.org/2000/svg">
<path d="M381 203C381 133.75 325.25 78 256 78C187 78 131 133.75 131 203C131 272 187 328 256 328C325.25 328 381 272 381 203ZM372 203C372 266.75 320 319 256 319C192.25 319 140 266.757 140 203C140 139 192.25 87 256 87C320 87 372 139 372 203ZM300.25 195.5C297.5 195.5 294 195.5 289.5 195.75L292.75 190.25H298C316.75 190.25 330.75 191.25 343.5 193.5L349.25 188C335 185.5 317.75 184 300.25 184H296L298.75 178.75H303.5C321.75 178.75 338.25 180.25 354.25 183.25L360.25 177.5C342.25 174 323 172.257 302.25 172.257C293.403 172.285 284.561 172.702 275.75 173.507C265.75 195 249.75 207.507 231.75 207.257C224.75 207 215.993 204.007 204.75 198L194.25 192L197.5 189L221.75 199.5L227 195.5L178 173.25L170.5 179L153 171.75L153.25 179C176.75 189.75 186.5 195.75 211.25 213.5C243.5 236.5 272.25 249 312.25 257L322.75 247H320.25C293.75 247 270 238.25 256.25 223.5C267.75 216.5 281.993 213.257 301.75 213.257C307 213.257 314.5 213.75 321.5 214.5L327.5 208.75C318.126 207.607 308.693 207.023 299.25 207C292.909 206.99 286.57 207.24 280.25 207.75L284.75 202.25C290.078 201.934 295.413 201.767 300.75 201.75C314 201.75 322.75 202.25 332.75 203.75L338.5 198.25C328 196.507 313.5 195.5 300.25 195.5Z" fill="#05164D"/>
<path d="M456 432.913V402.648C456 389.941 448.593 385.462 435.153 385.462C421.531 385.462 414.947 390.674 414.399 400.458H427.839C428.024 397.896 429.486 395.976 435.153 395.976C440.18 395.976 442.56 397.621 442.56 400.092C442.56 402.287 441.186 403.108 437.803 403.477L429.027 404.386C417.14 405.67 411.747 410.604 411.747 419.564C411.747 427.884 416.867 434.285 427.748 434.285C435.15 434.285 439.544 431.91 443.381 427.153V432.913H456ZM442.833 414.994C442.833 420.022 438.078 423.771 430.765 423.771C427.198 423.771 425.096 422.124 425.096 419.016C425.096 416.641 426.561 414.628 431.222 413.989L439.177 412.89C440.547 412.708 442.012 412.435 442.833 412.16V414.994ZM380.842 399.725C380.842 397.714 382.583 396.161 387.156 396.161C391.817 396.161 393.279 397.805 393.737 400.458H407.177C406.535 390.489 399.772 385.462 387.156 385.462C373.531 385.462 367.039 391.954 367.039 400.731C367.039 409.876 372.89 413.807 383.04 415.176L387.886 415.818C392.64 416.46 394.469 417.553 394.469 419.931C394.469 422.492 392.274 423.771 386.88 423.771C381.575 423.771 379.2 422.124 378.834 418.743H365.212C365.485 427.977 371.063 434.285 386.88 434.285C401.417 434.285 408.276 428.525 408.276 418.832C408.276 409.234 402.422 405.576 390.72 404.023L385.872 403.383C381.944 402.833 380.845 401.736 380.845 399.725H380.842ZM347.791 432.913H361.594V405.943C361.594 390.765 355.471 385.462 343.491 385.462C336.089 385.462 332.158 388.569 330.238 392.136V386.831H317.253V432.911H331.059V406.584C331.059 400.46 334.166 397.717 339.381 397.717C345.141 397.717 347.793 400.46 347.793 406.584V432.916L347.791 432.913ZM298.952 432.913H311.571V402.648C311.571 389.941 304.164 385.462 290.724 385.462C277.102 385.462 270.521 390.674 269.97 400.458H283.41C283.592 397.896 285.058 395.976 290.724 395.976C295.751 395.976 298.131 397.621 298.131 400.092C298.131 402.287 296.759 403.108 293.377 403.477L284.6 404.386C272.714 405.667 267.32 410.604 267.32 419.564C267.32 427.884 272.439 434.285 283.317 434.285C290.724 434.285 295.115 431.91 298.952 427.153V432.913ZM298.407 414.994C298.407 420.022 293.649 423.771 286.336 423.771C282.771 423.771 280.667 422.124 280.667 419.016C280.667 416.641 282.13 414.628 286.793 413.989L294.748 412.89C296.12 412.706 297.583 412.435 298.407 412.16V414.994ZM249.396 432.913H263.205V405.943C263.205 390.765 257.079 385.462 245.377 385.462C238.884 385.462 235.135 387.93 232.76 391.313V369.005H218.861V432.913H232.667V406.579C232.667 400.455 235.774 397.712 240.986 397.712C246.746 397.712 249.399 400.455 249.399 406.579V432.911L249.396 432.913ZM208.228 433.734C211.613 433.734 214.811 433.004 214.811 433.004V421.942C214.811 421.942 212.525 422.217 210.88 422.217C206.856 422.217 204.294 420.936 204.294 416.002V398.078H214.811V386.834H204.294V373.394H190.49V386.834H183.543V398.078H190.49V417.556C190.49 428.707 197.165 433.734 208.225 433.734H208.228ZM169.828 398.078H179.976V386.834H169.825V385.005C169.825 380.983 172.114 379.52 176.411 379.52C178.058 379.52 179.976 379.702 179.976 379.702V368.548C179.976 368.548 177.692 368 174.125 368C163.062 368 156.024 373.942 156.024 385.096V386.834H149.077V398.078H156.024V432.913H169.825V398.078H169.828ZM132.433 432.913H145.416V386.834H131.612V413.165C131.612 419.292 128.505 422.033 123.475 422.033C117.897 422.033 115.244 419.289 115.244 413.165V386.834H101.441V413.804C101.441 428.98 107.567 434.283 119.36 434.283C126.585 434.283 130.513 431.175 132.433 427.608V432.911V432.913ZM56 432.913H98.3333V420.019H70.8117V368.915H56V432.913Z" fill="#05164D"/>
</svg>
